<mxfile host="app.diagrams.net" modified="2023-04-21T13:29:05.670Z" agent="Mozilla/5.0 (Windows NT 10.0; Win64; x64) AppleWebKit/537.36 (KHTML, like Gecko) Chrome/112.0.0.0 Safari/537.36" etag="NkIihnbeVb5NEswQGhl7" version="21.2.1" type="device">
  <diagram name="Страница 1" id="U3EgJErjvFNFSPKi3ibt">
    <mxGraphModel dx="1195" dy="630" grid="0" gridSize="10" guides="1" tooltips="1" connect="1" arrows="1" fold="1" page="1" pageScale="1" pageWidth="827" pageHeight="1169" math="0" shadow="0">
      <root>
        <mxCell id="0" />
        <mxCell id="1" parent="0" />
        <mxCell id="PRKRpmgx8H03wLnPlp3q-1" value="Admin" style="shape=umlActor;verticalLabelPosition=bottom;verticalAlign=top;html=1;outlineConnect=0;" parent="1" vertex="1">
          <mxGeometry x="185.06" y="247" width="30" height="60" as="geometry" />
        </mxCell>
        <mxCell id="PRKRpmgx8H03wLnPlp3q-2" value="" style="endArrow=none;dashed=1;html=1;dashPattern=1 3;strokeWidth=2;rounded=0;" parent="1" source="PRKRpmgx8H03wLnPlp3q-5" edge="1">
          <mxGeometry width="50" height="50" relative="1" as="geometry">
            <mxPoint x="199.83999999999997" y="680" as="sourcePoint" />
            <mxPoint x="199.64" y="330" as="targetPoint" />
          </mxGeometry>
        </mxCell>
        <mxCell id="PRKRpmgx8H03wLnPlp3q-3" value="" style="endArrow=none;dashed=1;html=1;dashPattern=1 3;strokeWidth=2;rounded=0;entryX=0.5;entryY=1;entryDx=0;entryDy=0;" parent="1" source="PRKRpmgx8H03wLnPlp3q-7" target="PRKRpmgx8H03wLnPlp3q-12" edge="1">
          <mxGeometry width="50" height="50" relative="1" as="geometry">
            <mxPoint x="520.26" y="680" as="sourcePoint" />
            <mxPoint x="520.06" y="330" as="targetPoint" />
          </mxGeometry>
        </mxCell>
        <mxCell id="PRKRpmgx8H03wLnPlp3q-4" value="" style="endArrow=none;dashed=1;html=1;dashPattern=1 3;strokeWidth=2;rounded=0;" parent="1" target="PRKRpmgx8H03wLnPlp3q-5" edge="1">
          <mxGeometry width="50" height="50" relative="1" as="geometry">
            <mxPoint x="200" y="610" as="sourcePoint" />
            <mxPoint x="199.64" y="330" as="targetPoint" />
          </mxGeometry>
        </mxCell>
        <mxCell id="PRKRpmgx8H03wLnPlp3q-5" value="" style="rounded=0;whiteSpace=wrap;html=1;rotation=90;" parent="1" vertex="1">
          <mxGeometry x="83.6" y="476.46" width="232.93" height="10" as="geometry" />
        </mxCell>
        <mxCell id="PRKRpmgx8H03wLnPlp3q-6" value="" style="endArrow=none;dashed=1;html=1;dashPattern=1 3;strokeWidth=2;rounded=0;" parent="1" target="PRKRpmgx8H03wLnPlp3q-7" edge="1">
          <mxGeometry width="50" height="50" relative="1" as="geometry">
            <mxPoint x="520.06" y="600" as="sourcePoint" />
            <mxPoint x="520.06" y="330" as="targetPoint" />
          </mxGeometry>
        </mxCell>
        <mxCell id="PRKRpmgx8H03wLnPlp3q-7" value="" style="rounded=0;whiteSpace=wrap;html=1;rotation=90;" parent="1" vertex="1">
          <mxGeometry x="485.06" y="455" width="70" height="10" as="geometry" />
        </mxCell>
        <mxCell id="PRKRpmgx8H03wLnPlp3q-8" value="" style="endArrow=none;dashed=1;html=1;dashPattern=1 3;strokeWidth=2;rounded=0;entryX=0.5;entryY=1;entryDx=0;entryDy=0;" parent="1" source="PRKRpmgx8H03wLnPlp3q-10" target="PRKRpmgx8H03wLnPlp3q-11" edge="1">
          <mxGeometry width="50" height="50" relative="1" as="geometry">
            <mxPoint x="360.26000000000005" y="680" as="sourcePoint" />
            <mxPoint x="360.06" y="330" as="targetPoint" />
          </mxGeometry>
        </mxCell>
        <mxCell id="PRKRpmgx8H03wLnPlp3q-9" value="" style="endArrow=none;dashed=1;html=1;dashPattern=1 3;strokeWidth=2;rounded=0;" parent="1" target="PRKRpmgx8H03wLnPlp3q-10" edge="1">
          <mxGeometry width="50" height="50" relative="1" as="geometry">
            <mxPoint x="360.06" y="600" as="sourcePoint" />
            <mxPoint x="360.06" y="330" as="targetPoint" />
          </mxGeometry>
        </mxCell>
        <mxCell id="PRKRpmgx8H03wLnPlp3q-10" value="" style="rounded=0;whiteSpace=wrap;html=1;rotation=90;" parent="1" vertex="1">
          <mxGeometry x="335.06" y="385" width="50" height="10" as="geometry" />
        </mxCell>
        <mxCell id="PRKRpmgx8H03wLnPlp3q-11" value="Вікно авторизації" style="rounded=0;whiteSpace=wrap;html=1;" parent="1" vertex="1">
          <mxGeometry x="310.06" y="270" width="100" height="50" as="geometry" />
        </mxCell>
        <mxCell id="PRKRpmgx8H03wLnPlp3q-12" value="Меню адміністратора" style="rounded=0;whiteSpace=wrap;html=1;" parent="1" vertex="1">
          <mxGeometry x="470.06" y="270" width="100" height="50" as="geometry" />
        </mxCell>
        <mxCell id="PRKRpmgx8H03wLnPlp3q-13" value="" style="endArrow=none;dashed=1;html=1;dashPattern=1 3;strokeWidth=2;rounded=0;entryX=0.5;entryY=1;entryDx=0;entryDy=0;" parent="1" source="PRKRpmgx8H03wLnPlp3q-15" target="PRKRpmgx8H03wLnPlp3q-16" edge="1">
          <mxGeometry width="50" height="50" relative="1" as="geometry">
            <mxPoint x="680.26" y="680" as="sourcePoint" />
            <mxPoint x="680.06" y="330" as="targetPoint" />
          </mxGeometry>
        </mxCell>
        <mxCell id="PRKRpmgx8H03wLnPlp3q-14" value="" style="endArrow=none;dashed=1;html=1;dashPattern=1 3;strokeWidth=2;rounded=0;" parent="1" target="PRKRpmgx8H03wLnPlp3q-15" edge="1">
          <mxGeometry width="50" height="50" relative="1" as="geometry">
            <mxPoint x="680" y="610" as="sourcePoint" />
            <mxPoint x="680.06" y="330" as="targetPoint" />
          </mxGeometry>
        </mxCell>
        <mxCell id="PRKRpmgx8H03wLnPlp3q-15" value="" style="rounded=0;whiteSpace=wrap;html=1;rotation=90;" parent="1" vertex="1">
          <mxGeometry x="633.88" y="546.05" width="92.36" height="10" as="geometry" />
        </mxCell>
        <mxCell id="PRKRpmgx8H03wLnPlp3q-16" value="Список замовлень" style="rounded=0;whiteSpace=wrap;html=1;" parent="1" vertex="1">
          <mxGeometry x="630.06" y="270" width="100" height="50" as="geometry" />
        </mxCell>
        <mxCell id="PRKRpmgx8H03wLnPlp3q-17" value="" style="endArrow=classic;html=1;rounded=0;entryX=0.5;entryY=1;entryDx=0;entryDy=0;exitX=0.107;exitY=0.042;exitDx=0;exitDy=0;exitPerimeter=0;" parent="1" source="PRKRpmgx8H03wLnPlp3q-5" target="PRKRpmgx8H03wLnPlp3q-10" edge="1">
          <mxGeometry width="50" height="50" relative="1" as="geometry">
            <mxPoint x="210" y="390" as="sourcePoint" />
            <mxPoint x="350.06" y="390" as="targetPoint" />
          </mxGeometry>
        </mxCell>
        <mxCell id="PRKRpmgx8H03wLnPlp3q-18" value="&lt;font style=&quot;font-size: 11px;&quot;&gt;Ввести логін та пароль&lt;/font&gt;" style="edgeLabel;html=1;align=center;verticalAlign=middle;resizable=0;points=[];" parent="PRKRpmgx8H03wLnPlp3q-17" vertex="1" connectable="0">
          <mxGeometry x="0.0952" relative="1" as="geometry">
            <mxPoint x="-7" as="offset" />
          </mxGeometry>
        </mxCell>
        <mxCell id="PRKRpmgx8H03wLnPlp3q-21" value="" style="endArrow=classic;html=1;rounded=0;entryX=0.567;entryY=1;entryDx=0;entryDy=0;entryPerimeter=0;exitX=0.494;exitY=-0.026;exitDx=0;exitDy=0;exitPerimeter=0;" parent="1" source="PRKRpmgx8H03wLnPlp3q-5" edge="1">
          <mxGeometry width="50" height="50" relative="1" as="geometry">
            <mxPoint x="210" y="480" as="sourcePoint" />
            <mxPoint x="515.06" y="480" as="targetPoint" />
          </mxGeometry>
        </mxCell>
        <mxCell id="PRKRpmgx8H03wLnPlp3q-22" value="Перейти к замовленням" style="edgeLabel;html=1;align=center;verticalAlign=middle;resizable=0;points=[];" parent="PRKRpmgx8H03wLnPlp3q-21" vertex="1" connectable="0">
          <mxGeometry x="-0.0447" y="1" relative="1" as="geometry">
            <mxPoint as="offset" />
          </mxGeometry>
        </mxCell>
        <mxCell id="PRKRpmgx8H03wLnPlp3q-23" value="" style="endArrow=classic;html=1;rounded=0;exitX=0.708;exitY=0.008;exitDx=0;exitDy=0;exitPerimeter=0;entryX=0.273;entryY=1.036;entryDx=0;entryDy=0;entryPerimeter=0;" parent="1" source="PRKRpmgx8H03wLnPlp3q-5" target="PRKRpmgx8H03wLnPlp3q-15" edge="1">
          <mxGeometry width="50" height="50" relative="1" as="geometry">
            <mxPoint x="210" y="530" as="sourcePoint" />
            <mxPoint x="670" y="530" as="targetPoint" />
          </mxGeometry>
        </mxCell>
        <mxCell id="PRKRpmgx8H03wLnPlp3q-24" value="Обрати замовлення зі списку" style="edgeLabel;html=1;align=center;verticalAlign=middle;resizable=0;points=[];" parent="PRKRpmgx8H03wLnPlp3q-23" vertex="1" connectable="0">
          <mxGeometry x="-0.0447" y="1" relative="1" as="geometry">
            <mxPoint as="offset" />
          </mxGeometry>
        </mxCell>
        <mxCell id="PRKRpmgx8H03wLnPlp3q-25" value="" style="endArrow=classic;html=1;rounded=0;exitX=0.794;exitY=-0.018;exitDx=0;exitDy=0;exitPerimeter=0;entryX=0.486;entryY=1.031;entryDx=0;entryDy=0;entryPerimeter=0;" parent="1" source="PRKRpmgx8H03wLnPlp3q-5" target="PRKRpmgx8H03wLnPlp3q-15" edge="1">
          <mxGeometry width="50" height="50" relative="1" as="geometry">
            <mxPoint x="210" y="550" as="sourcePoint" />
            <mxPoint x="670" y="550" as="targetPoint" />
          </mxGeometry>
        </mxCell>
        <mxCell id="PRKRpmgx8H03wLnPlp3q-26" value="Натиснути на &quot;Редагувати замовлення&quot;" style="edgeLabel;html=1;align=center;verticalAlign=middle;resizable=0;points=[];" parent="PRKRpmgx8H03wLnPlp3q-25" vertex="1" connectable="0">
          <mxGeometry x="-0.0447" y="1" relative="1" as="geometry">
            <mxPoint as="offset" />
          </mxGeometry>
        </mxCell>
        <mxCell id="PRKRpmgx8H03wLnPlp3q-27" value="" style="endArrow=classic;html=1;rounded=0;exitX=0.623;exitY=-0.013;exitDx=0;exitDy=0;exitPerimeter=0;entryX=0.052;entryY=1.031;entryDx=0;entryDy=0;entryPerimeter=0;" parent="1" source="PRKRpmgx8H03wLnPlp3q-5" target="PRKRpmgx8H03wLnPlp3q-15" edge="1">
          <mxGeometry width="50" height="50" relative="1" as="geometry">
            <mxPoint x="210" y="510" as="sourcePoint" />
            <mxPoint x="670" y="510" as="targetPoint" />
          </mxGeometry>
        </mxCell>
        <mxCell id="PRKRpmgx8H03wLnPlp3q-28" value="Натиснути на &quot;Показати всі замовлення&quot;" style="edgeLabel;html=1;align=center;verticalAlign=middle;resizable=0;points=[];" parent="PRKRpmgx8H03wLnPlp3q-27" vertex="1" connectable="0">
          <mxGeometry x="-0.0447" y="1" relative="1" as="geometry">
            <mxPoint as="offset" />
          </mxGeometry>
        </mxCell>
        <mxCell id="PRKRpmgx8H03wLnPlp3q-29" value="" style="endArrow=classic;html=1;rounded=0;exitX=0.88;exitY=-0.025;exitDx=0;exitDy=0;exitPerimeter=0;entryX=0.704;entryY=1.037;entryDx=0;entryDy=0;entryPerimeter=0;" parent="1" source="PRKRpmgx8H03wLnPlp3q-5" target="PRKRpmgx8H03wLnPlp3q-15" edge="1">
          <mxGeometry width="50" height="50" relative="1" as="geometry">
            <mxPoint x="210" y="570" as="sourcePoint" />
            <mxPoint x="670" y="570" as="targetPoint" />
          </mxGeometry>
        </mxCell>
        <mxCell id="PRKRpmgx8H03wLnPlp3q-30" value="Натиснути на &quot;Видалити замовлення&quot;" style="edgeLabel;html=1;align=center;verticalAlign=middle;resizable=0;points=[];" parent="PRKRpmgx8H03wLnPlp3q-29" vertex="1" connectable="0">
          <mxGeometry x="-0.0447" y="1" relative="1" as="geometry">
            <mxPoint as="offset" />
          </mxGeometry>
        </mxCell>
        <mxCell id="PRKRpmgx8H03wLnPlp3q-31" value="" style="endArrow=classic;html=1;rounded=0;exitX=0.966;exitY=-0.019;exitDx=0;exitDy=0;exitPerimeter=0;entryX=0.923;entryY=1.056;entryDx=0;entryDy=0;entryPerimeter=0;" parent="1" source="PRKRpmgx8H03wLnPlp3q-5" target="PRKRpmgx8H03wLnPlp3q-15" edge="1">
          <mxGeometry width="50" height="50" relative="1" as="geometry">
            <mxPoint x="210" y="590" as="sourcePoint" />
            <mxPoint x="670" y="590" as="targetPoint" />
          </mxGeometry>
        </mxCell>
        <mxCell id="PRKRpmgx8H03wLnPlp3q-32" value="Підтвердити та зберегти" style="edgeLabel;html=1;align=center;verticalAlign=middle;resizable=0;points=[];" parent="PRKRpmgx8H03wLnPlp3q-31" vertex="1" connectable="0">
          <mxGeometry x="-0.0447" y="1" relative="1" as="geometry">
            <mxPoint as="offset" />
          </mxGeometry>
        </mxCell>
        <mxCell id="b4CjPhDoIgGZ7ERET7_Z-1" value="" style="endArrow=none;dashed=1;html=1;rounded=0;exitX=0.5;exitY=0;exitDx=0;exitDy=0;entryX=0.217;entryY=1.106;entryDx=0;entryDy=0;entryPerimeter=0;" edge="1" parent="1" source="PRKRpmgx8H03wLnPlp3q-10" target="PRKRpmgx8H03wLnPlp3q-7">
          <mxGeometry width="50" height="50" relative="1" as="geometry">
            <mxPoint x="400" y="450" as="sourcePoint" />
            <mxPoint x="450" y="400" as="targetPoint" />
            <Array as="points">
              <mxPoint x="440" y="390" />
              <mxPoint x="440" y="440" />
            </Array>
          </mxGeometry>
        </mxCell>
        <mxCell id="b4CjPhDoIgGZ7ERET7_Z-2" value="&lt;font style=&quot;font-size: 10px;&quot;&gt;Вхід в меню&lt;/font&gt;" style="edgeLabel;html=1;align=center;verticalAlign=middle;resizable=0;points=[];" vertex="1" connectable="0" parent="b4CjPhDoIgGZ7ERET7_Z-1">
          <mxGeometry x="-0.6846" relative="1" as="geometry">
            <mxPoint x="5" as="offset" />
          </mxGeometry>
        </mxCell>
      </root>
    </mxGraphModel>
  </diagram>
</mxfile>
